<?xml version="1.0" encoding="UTF-8"?>
<svg data-bbox="4 9 40.1 30" height="144" width="144" viewBox="0 0 48 48" xmlns="http://www.w3.org/2000/svg" data-type="color">
    <g>
        <path d="M43.2 33.9c-.4 2.1-2.1 3.7-4.2 4-3.3.5-8.8 1.1-15 1.1-6.1 0-11.6-.6-15-1.1-2.1-.3-3.8-1.9-4.2-4-.4-2.3-.8-5.7-.8-9.9s.4-7.6.8-9.9c.4-2.1 2.1-3.7 4.2-4C12.3 9.6 17.8 9 24 9c6.2 0 11.6.6 15 1.1 2.1.3 3.8 1.9 4.2 4 .4 2.3.9 5.7.9 9.9-.1 4.2-.5 7.6-.9 9.9z" fill="#FF3D00" data-color="1"/>
        <path d="M20 31V17l12 7z" fill="#FFFFFF" data-color="2"/>
    </g>
</svg>
