<?xml version="1.0" encoding="UTF-8"?>
<svg id="Camada_2" data-name="Camada 2" xmlns="http://www.w3.org/2000/svg" xmlns:xlink="http://www.w3.org/1999/xlink" viewBox="0 0 1537.68 1054.62">
  <defs>
    <style>
      .cls-1, .cls-2, .cls-3, .cls-4, .cls-5 {
        fill: #fff;
      }

      .cls-1, .cls-2, .cls-3, .cls-6, .cls-5, .cls-7, .cls-8 {
        stroke-miterlimit: 10;
      }

      .cls-1, .cls-2, .cls-3, .cls-6, .cls-7, .cls-8 {
        stroke: #000;
      }

      .cls-1, .cls-7 {
        stroke-width: 2.29px;
      }

      .cls-9, .cls-4, .cls-10, .cls-11 {
        stroke-width: 0px;
      }

      .cls-2, .cls-8 {
        stroke-width: 6.87px;
      }

      .cls-3 {
        stroke-width: 3.43px;
      }

      .cls-10 {
        fill: url(#Gradiente_sem_nome_95);
      }

      .cls-6 {
        stroke-width: 1.14px;
      }

      .cls-5 {
        stroke: #fff;
        stroke-width: .29px;
      }

      .cls-7, .cls-8 {
        fill: none;
      }

      .cls-11 {
        fill: url(#Gradiente_sem_nome_137);
      }
    </style>
    <linearGradient id="Gradiente_sem_nome_95" data-name="Gradiente sem nome 95" x1="769.77" y1="1054.62" x2="769.77" y2="348.87" gradientUnits="userSpaceOnUse">
      <stop offset="0" stop-color="#19606c"/>
      <stop offset=".03" stop-color="#1c6672"/>
      <stop offset=".14" stop-color="#287d8a"/>
      <stop offset=".26" stop-color="#318f9d"/>
      <stop offset=".41" stop-color="#389baa"/>
      <stop offset=".61" stop-color="#3ba2b1"/>
      <stop offset="1" stop-color="#3da5b4"/>
    </linearGradient>
    <linearGradient id="Gradiente_sem_nome_137" data-name="Gradiente sem nome 137" x1="929.71" y1="358" x2="933.85" y2="120.44" gradientUnits="userSpaceOnUse">
      <stop offset="0" stop-color="#add5d7"/>
      <stop offset="0" stop-color="#3ba5b4"/>
      <stop offset="1" stop-color="#3cafc0"/>
    </linearGradient>
  </defs>
  <g id="Fundo">
    <g>
      <g id="base">
        <path class="cls-10" d="M29.08,348.87h1437.43c24.26,0,43.95,19.69,43.95,43.95v661.79H29.08V348.87h0Z"/>
        <polyline class="cls-11" points="412.77 348.97 412.77 263.57 901.09 119.87 1158.99 211.56 1254.5 190.62 1448.45 348.97 412.77 348.97"/>
        <path class="cls-9" d="M990.01,1054.16H0l29.33-75.03,960.68,1.89v73.14Z"/>
        <path class="cls-6" d="M194.06,981.24h154.33v-460.41l-40.06.12c-72.9,7.51-100.58,60.11-109.64,121.72l-4.63,338.58Z"/>
      </g>
      <g id="Telhado">
        <path class="cls-9" d="M16.72,348.04h395.95c.05,0,.1.04.1.1v31.89c0,1.79-1.45,3.24-3.24,3.24H19.21c-2.89,0-5.23-2.34-5.23-5.23v-27.26c0-1.51,1.23-2.74,2.74-2.74Z"/>
        <path class="cls-9" d="M389.34,233.93l3.54,27.55c.59,4.59,5.14,7.55,9.58,6.24l499.14-147.85,263.19,100.2,42.44-26.6-283.87-108.5h-36.47s-494.05,143.62-494.05,143.62c-2.32.68-3.81,2.94-3.5,5.34Z"/>
        <path class="cls-9" d="M1271.54,176.45l264.31,212.77c1.83,1.52,2.37,4.11,1.28,6.22l-8.36,16.26c-1.21,2.36-4.29,3-6.35,1.32l-268.87-214.04c-3.26-2.66-2.14-2.91-5.64-.58l-283.49,183.1c-2.37,1.57-5.58.83-7.02-1.63l-8.57-14.68c-1.19-2.04-.7-4.63,1.14-6.11l21.47-17.18c2.27-1.82,3.03-4.93,1.86-7.59l-48.81-110.44c-.46-1.04.63-2.09,1.65-1.59l9.72,4.73c1.82.89,3.31,2.32,4.27,4.11l49.26,92.28c1.44,2.7,4.88,3.58,7.45,1.91l238.11-149.22"/>
        <g id="_1_Acroterio_Ornamental" data-name="1 Acroterio Ornamental">
          <path class="cls-9" d="M77.43,299.22c0,14.48-11.74,13.88-26.23,13.88s-26.23,1.19-26.23-13.3,13.85-39.47,26.23-39.16c11.47.29,26.23,24.09,26.23,38.57Z"/>
          <path class="cls-9" d="M32.89,339.7l3.25-2.9c7.91-7.04,7.91-19.4,0-26.43l-.04-.04c-1.26-1.12-.47-3.21,1.22-3.21h28.03c1.45,0,2.13,1.79,1.05,2.75l-.55.49c-7.91,7.04-7.91,19.4,0,26.43l3.65,3.25h-36.47c-.18,0-.27-.23-.13-.35Z"/>
          <path class="cls-9" d="M23.55,350.1v-7.12c0-2.89,1.89-5.43,4.66-6.26l21.12-6.32c1.22-.37,2.53-.37,3.75,0l21.12,6.32c2.76.83,4.66,3.37,4.66,6.26v6.84c0,3.59-2.9,6.51-6.49,6.53l-42.24.27c-3.62.02-6.57-2.91-6.57-6.53Z"/>
        </g>
        <g id="_3_Acroterio_Ornamental" data-name="3 Acroterio Ornamental">
          <path class="cls-9" d="M931.2,38.57c0,14.48-11.74,13.88-26.23,13.88s-26.23,1.19-26.23-13.3S892.6-.31,904.97,0c11.47.29,26.23,24.09,26.23,38.57Z"/>
          <path class="cls-9" d="M886.66,79.05l3.25-2.9c7.91-7.04,7.91-19.4,0-26.43l-.04-.04c-1.26-1.12-.47-3.21,1.22-3.21h28.03c1.45,0,2.13,1.79,1.05,2.75l-.55.49c-7.91,7.04-7.91,19.4,0,26.43l3.65,3.25h-36.47c-.18,0-.27-.23-.13-.35Z"/>
          <path class="cls-9" d="M877.32,89.45v-7.12c0-2.89,1.89-5.43,4.66-6.26l21.12-6.32c1.22-.37,2.53-.37,3.75,0l21.12,6.32c2.76.83,4.66,3.37,4.66,6.26v6.84c0,3.59-2.9,6.51-6.49,6.53l-42.24.27c-3.62.02-6.57-2.91-6.57-6.53Z"/>
        </g>
        <g id="_4_Acroterio_Ornamental" data-name="4 Acroterio Ornamental">
          <path class="cls-9" d="M1278.05,132.55c0,14.48-11.74,13.88-26.23,13.88s-26.23,1.19-26.23-13.3,13.85-39.47,26.23-39.16c11.47.29,26.23,24.09,26.23,38.57Z"/>
          <path class="cls-9" d="M1233.51,173.02l3.25-2.9c7.91-7.04,7.91-19.4,0-26.43l-.04-.04c-1.26-1.12-.47-3.21,1.22-3.21h28.03c1.45,0,2.13,1.79,1.05,2.75l-.55.49c-7.91,7.04-7.91,19.4,0,26.43l3.65,3.25h-36.47c-.18,0-.27-.23-.13-.35Z"/>
          <path class="cls-9" d="M1224.17,183.42v-7.12c0-2.89,1.89-5.43,4.66-6.26l21.12-6.32c1.22-.37,2.53-.37,3.75,0l21.12,6.32c2.76.83,4.66,3.37,4.66,6.26v6.84c0,3.59-2.9,6.51-6.49,6.53l-42.24.27c-3.62.02-6.57-2.91-6.57-6.53Z"/>
        </g>
      </g>
      <g id="Frente_da_casa" data-name="Frente da casa">
        <g id="Porta">
          <path id="porta" class="cls-2" d="M615.18,539.78h154.63c2.29,0,4.15,1.86,4.15,4.15v440.44h-162.73v-440.65c0-2.18,1.77-3.95,3.95-3.95Z"/>
          <path class="cls-3" d="M735.2,965.42h-82.4c0-7.21-5.9-13.12-13.12-13.12v-82.4c7.21,0,13.12-5.9,13.12-13.12h82.4c0,7.21,5.9,13.12,13.12,13.12v82.4c-7.21,0-13.12,5.9-13.12,13.12Z"/>
          <g id="basculante">
            <rect class="cls-9" x="643.67" y="766.82" width="100.66" height="68.23"/>
            <g>
              <path class="cls-4" d="M739.71,767.99c1.44.68,1.96,1.35,2.18,2.03.08.34.12.68-.05,1.01-.25.49-1.26,1.13-1.8,1.52-.9.82-2.31,2.44-2.48,3.55-.15,2.82,2.48,5.51,3.15,8.11,1.43,5.47-4.11,10.62-2.47,16.22.62,2.7,2.53,5.41,2.66,8.11.47,4.09-2.07,8.19-3.01,12.16-.24,1.35-.64,2.7.03,4.05.61,1.04,1.13,2.13,2.02,3.04.63.6,1.71,1.22,1.97,2.03.27,1.45-.83,2.37-2.19,3.04,0,0-6.96,0-6.96,0-1.76-.73-3.21-2.66-1.43-4.05,1.47-1.02,2.44-2.53,3.23-4.05.67-1.35.27-2.7.02-4.05-.94-3.97-3.49-8.07-3.01-12.16.38-4.01,3.79-7.87,2.8-12.16-.68-4-3.76-8.07-2.6-12.16.67-2.6,3.3-5.29,3.15-8.11-.17-1.13-1.57-2.72-2.48-3.55-.87-.64-2.29-1.33-1.86-2.53.22-.68.74-1.35,2.18-2.03,0,0,6.96,0,6.96,0h0Z"/>
              <path class="cls-4" d="M723.1,767.97c1.44.68,1.96,1.35,2.18,2.03.08.34.12.68-.05,1.01-.25.49-1.26,1.13-1.8,1.52-.9.82-2.31,2.44-2.48,3.55-.15,2.82,2.48,5.51,3.15,8.11,1.42,5.47-4.11,10.62-2.47,16.22.62,2.7,2.53,5.41,2.66,8.11.47,4.09-2.07,8.19-3.01,12.16-.24,1.35-.64,2.7.03,4.05.61,1.04,1.13,2.13,2.02,3.04.62.6,1.71,1.22,1.97,2.03.27,1.45-.83,2.37-2.19,3.04,0,0-6.96,0-6.96,0-1.76-.73-3.21-2.65-1.43-4.05,1.47-1.02,2.44-2.53,3.23-4.05.67-1.35.27-2.7.02-4.05-.94-3.97-3.49-8.07-3.01-12.16.38-4.01,3.79-7.87,2.8-12.16-.68-4-3.76-8.07-2.6-12.16.67-2.6,3.3-5.29,3.15-8.11-.17-1.13-1.57-2.72-2.48-3.55-.87-.64-2.29-1.33-1.86-2.53.22-.68.74-1.35,2.18-2.03h6.96Z"/>
              <path class="cls-4" d="M705.06,767.97c1.44.68,1.96,1.35,2.18,2.03.08.34.12.68-.05,1.01-.25.49-1.26,1.13-1.8,1.52-.9.82-2.31,2.44-2.48,3.55-.15,2.82,2.48,5.51,3.15,8.11,1.43,5.47-4.11,10.62-2.47,16.22.62,2.7,2.53,5.41,2.66,8.11.47,4.09-2.07,8.19-3.01,12.16-.24,1.35-.64,2.7.03,4.05.61,1.04,1.13,2.13,2.02,3.04.63.6,1.71,1.22,1.97,2.03.27,1.45-.83,2.37-2.19,3.04,0,0-6.96,0-6.96,0-1.76-.73-3.21-2.66-1.43-4.05,1.47-1.02,2.44-2.53,3.23-4.05.67-1.35.27-2.7.02-4.05-.94-3.97-3.49-8.07-3.01-12.16.38-4.01,3.79-7.87,2.8-12.16-.68-4-3.76-8.07-2.6-12.16.67-2.6,3.3-5.29,3.15-8.11-.17-1.13-1.57-2.72-2.48-3.55-.87-.64-2.29-1.33-1.86-2.53.22-.68.74-1.35,2.18-2.03h6.96Z"/>
              <path class="cls-4" d="M689.31,767.97c1.44.68,1.96,1.35,2.18,2.03.08.34.12.68-.05,1.01-.25.49-1.26,1.13-1.8,1.52-.9.82-2.31,2.44-2.48,3.55-.15,2.82,2.48,5.51,3.15,8.11,1.42,5.47-4.11,10.62-2.47,16.22.62,2.7,2.53,5.41,2.66,8.11.47,4.09-2.07,8.19-3.01,12.16-.24,1.35-.64,2.7.02,4.05.61,1.04,1.13,2.13,2.02,3.04.62.6,1.71,1.22,1.97,2.03.27,1.45-.83,2.37-2.19,3.04,0,0-6.96,0-6.96,0-1.76-.73-3.21-2.65-1.43-4.05,1.47-1.02,2.44-2.53,3.23-4.05.67-1.35.27-2.7.02-4.05-.94-3.97-3.49-8.07-3.01-12.16.38-4.01,3.79-7.87,2.8-12.16-.68-4-3.76-8.07-2.6-12.16.67-2.6,3.3-5.29,3.15-8.11-.17-1.13-1.57-2.72-2.48-3.55-.87-.64-2.29-1.33-1.86-2.53.22-.68.74-1.35,2.18-2.03h6.96Z"/>
              <path class="cls-4" d="M672.95,767.97c1.44.68,1.96,1.35,2.18,2.03.08.34.12.68-.05,1.01-.25.49-1.26,1.13-1.8,1.52-.9.82-2.31,2.44-2.48,3.55-.15,2.82,2.48,5.51,3.15,8.11,1.43,5.47-4.11,10.62-2.47,16.22.62,2.7,2.53,5.41,2.66,8.11.47,4.09-2.07,8.19-3.01,12.16-.24,1.35-.64,2.7.03,4.05.61,1.04,1.13,2.13,2.02,3.04.63.6,1.71,1.22,1.97,2.03.27,1.45-.83,2.37-2.19,3.04,0,0-6.96,0-6.96,0-1.76-.73-3.21-2.66-1.43-4.05,1.47-1.02,2.44-2.53,3.23-4.05.67-1.35.27-2.7.02-4.05-.94-3.97-3.49-8.07-3.01-12.16.38-4.01,3.79-7.87,2.8-12.16-.69-4-3.76-8.07-2.6-12.16.67-2.6,3.3-5.29,3.15-8.11-.17-1.13-1.57-2.72-2.48-3.55-.87-.64-2.29-1.33-1.86-2.53.22-.68.74-1.35,2.18-2.03h6.96Z"/>
              <path class="cls-4" d="M655.86,767.97c1.44.68,1.96,1.35,2.18,2.03.08.34.12.68-.05,1.01-.25.49-1.26,1.13-1.8,1.52-.9.82-2.31,2.44-2.48,3.55-.15,2.82,2.48,5.51,3.15,8.11,1.43,5.47-4.11,10.62-2.47,16.22.62,2.7,2.53,5.41,2.66,8.11.47,4.09-2.07,8.19-3.01,12.16-.24,1.35-.64,2.7.03,4.05.61,1.04,1.13,2.13,2.02,3.04.63.6,1.71,1.22,1.97,2.03.27,1.45-.83,2.37-2.19,3.04,0,0-6.96,0-6.96,0-1.76-.73-3.21-2.66-1.43-4.05,1.47-1.02,2.44-2.53,3.23-4.05.67-1.35.27-2.7.02-4.05-.94-3.97-3.49-8.07-3.01-12.16.38-4.01,3.79-7.87,2.8-12.16-.68-4-3.76-8.07-2.6-12.16.67-2.6,3.3-5.29,3.15-8.11-.17-1.13-1.57-2.72-2.48-3.55-.87-.64-2.29-1.33-1.86-2.53.22-.68.74-1.35,2.18-2.03h6.96Z"/>
            </g>
            <rect class="cls-9" x="643.67" y="682.94" width="100.66" height="68.23"/>
            <g>
              <path class="cls-4" d="M739.95,684.63c1.44.68,1.96,1.35,2.18,2.03.08.34.12.68-.05,1.01-.25.49-1.26,1.13-1.8,1.52-.9.82-2.31,2.44-2.48,3.55-.15,2.82,2.48,5.51,3.15,8.11,1.43,5.47-4.11,10.62-2.47,16.22.62,2.7,2.53,5.41,2.66,8.11.47,4.09-2.07,8.19-3.01,12.16-.24,1.35-.64,2.7.03,4.05.61,1.04,1.13,2.13,2.02,3.04.63.6,1.71,1.22,1.97,2.03.27,1.45-.83,2.37-2.19,3.04,0,0-6.96,0-6.96,0-1.76-.73-3.21-2.66-1.43-4.05,1.47-1.02,2.44-2.53,3.23-4.05.67-1.35.27-2.7.02-4.05-.94-3.97-3.49-8.07-3.01-12.16.38-4.01,3.79-7.87,2.8-12.16-.69-4-3.76-8.07-2.6-12.16.67-2.6,3.3-5.29,3.15-8.11-.17-1.13-1.57-2.72-2.48-3.55-.87-.64-2.29-1.33-1.86-2.53.22-.68.74-1.35,2.18-2.03h6.96Z"/>
              <path class="cls-4" d="M723.35,684.61c1.44.68,1.96,1.35,2.18,2.03.08.34.12.68-.05,1.01-.25.49-1.26,1.13-1.8,1.52-.9.82-2.31,2.44-2.48,3.55-.15,2.82,2.48,5.51,3.15,8.11,1.43,5.47-4.11,10.62-2.47,16.22.62,2.7,2.53,5.41,2.66,8.11.47,4.09-2.07,8.19-3.02,12.16-.24,1.35-.64,2.7.03,4.05.61,1.04,1.13,2.13,2.02,3.04.62.6,1.71,1.22,1.97,2.03.27,1.45-.83,2.37-2.19,3.04,0,0-6.96,0-6.96,0-1.76-.73-3.21-2.65-1.43-4.05,1.47-1.02,2.44-2.53,3.23-4.05.67-1.35.27-2.7.02-4.05-.94-3.97-3.49-8.07-3.01-12.16.38-4.01,3.79-7.87,2.8-12.16-.68-4-3.76-8.07-2.6-12.16.67-2.6,3.3-5.29,3.15-8.11-.17-1.13-1.57-2.72-2.48-3.55-.87-.64-2.29-1.33-1.86-2.53.22-.68.74-1.35,2.18-2.03h6.96Z"/>
              <path class="cls-4" d="M705.3,684.61c1.44.68,1.96,1.35,2.18,2.03.08.34.12.68-.05,1.01-.25.49-1.26,1.13-1.8,1.52-.9.82-2.31,2.44-2.48,3.55-.15,2.82,2.48,5.51,3.15,8.11,1.43,5.47-4.11,10.62-2.47,16.22.62,2.7,2.53,5.41,2.66,8.11.47,4.09-2.07,8.19-3.01,12.16-.24,1.35-.64,2.7.03,4.05.61,1.04,1.13,2.13,2.02,3.04.63.6,1.71,1.22,1.97,2.03.27,1.45-.83,2.37-2.19,3.04,0,0-6.96,0-6.96,0-1.76-.73-3.21-2.66-1.43-4.05,1.47-1.02,2.44-2.53,3.23-4.05.67-1.35.27-2.7.02-4.05-.94-3.97-3.49-8.07-3.01-12.16.38-4.01,3.79-7.87,2.8-12.16-.69-4-3.76-8.07-2.6-12.16.67-2.6,3.3-5.29,3.15-8.11-.17-1.13-1.57-2.72-2.48-3.55-.87-.64-2.29-1.33-1.86-2.53.22-.68.74-1.35,2.18-2.03h6.96Z"/>
              <path class="cls-4" d="M689.55,684.61c1.44.68,1.96,1.35,2.18,2.03.08.34.12.68-.05,1.01-.25.49-1.26,1.13-1.8,1.52-.9.82-2.31,2.44-2.48,3.55-.15,2.82,2.48,5.51,3.15,8.11,1.43,5.47-4.11,10.62-2.47,16.22.62,2.7,2.53,5.41,2.66,8.11.47,4.09-2.07,8.19-3.01,12.16-.24,1.35-.64,2.7.03,4.05.61,1.04,1.13,2.13,2.02,3.04.62.6,1.71,1.22,1.97,2.03.27,1.45-.83,2.37-2.19,3.04,0,0-6.96,0-6.96,0-1.76-.73-3.21-2.66-1.43-4.05,1.47-1.02,2.44-2.53,3.23-4.05.67-1.35.27-2.7.02-4.05-.94-3.97-3.49-8.07-3.01-12.16.38-4.01,3.79-7.87,2.8-12.16-.68-4-3.76-8.07-2.6-12.16.67-2.6,3.3-5.29,3.15-8.11-.17-1.13-1.57-2.72-2.48-3.55-.87-.64-2.29-1.33-1.86-2.53.22-.68.74-1.35,2.18-2.03h6.96Z"/>
              <path class="cls-4" d="M673.19,684.61c1.44.68,1.96,1.35,2.18,2.03.08.34.12.68-.05,1.01-.25.49-1.26,1.13-1.8,1.52-.9.82-2.31,2.44-2.48,3.55-.15,2.82,2.48,5.51,3.15,8.11,1.43,5.47-4.11,10.62-2.47,16.22.62,2.7,2.53,5.41,2.66,8.11.47,4.09-2.07,8.19-3.01,12.16-.24,1.35-.64,2.7.03,4.05.61,1.04,1.13,2.13,2.02,3.04.63.6,1.71,1.22,1.97,2.03.27,1.45-.83,2.37-2.19,3.04,0,0-6.96,0-6.96,0-1.76-.73-3.21-2.66-1.43-4.05,1.47-1.02,2.44-2.53,3.23-4.05.67-1.35.27-2.7.02-4.05-.94-3.97-3.49-8.07-3.01-12.16.38-4.01,3.79-7.87,2.8-12.16-.69-4-3.76-8.07-2.6-12.16.67-2.6,3.3-5.29,3.15-8.11-.17-1.13-1.57-2.72-2.48-3.55-.87-.64-2.29-1.33-1.86-2.53.22-.68.74-1.35,2.18-2.03h6.96Z"/>
              <path class="cls-4" d="M656.1,684.61c1.44.68,1.96,1.35,2.18,2.03.08.34.12.68-.05,1.01-.25.49-1.26,1.13-1.8,1.52-.9.82-2.31,2.44-2.48,3.55-.15,2.82,2.48,5.51,3.15,8.11,1.43,5.47-4.11,10.62-2.47,16.22.62,2.7,2.53,5.41,2.66,8.11.47,4.09-2.07,8.19-3.01,12.16-.24,1.35-.64,2.7.03,4.05.61,1.04,1.13,2.13,2.02,3.04.62.6,1.71,1.22,1.97,2.03.27,1.45-.83,2.37-2.19,3.04,0,0-6.96,0-6.96,0-1.76-.73-3.21-2.66-1.43-4.05,1.47-1.02,2.44-2.53,3.23-4.05.67-1.35.27-2.7.02-4.05-.94-3.97-3.49-8.07-3.01-12.16.38-4.01,3.79-7.87,2.8-12.16-.69-4-3.76-8.07-2.6-12.16.67-2.6,3.3-5.29,3.15-8.11-.17-1.13-1.57-2.72-2.48-3.55-.87-.64-2.29-1.33-1.86-2.53.22-.68.74-1.35,2.18-2.03h6.96Z"/>
            </g>
            <rect class="cls-9" x="643.67" y="599.06" width="100.66" height="68.23"/>
            <g>
              <path class="cls-4" d="M739.4,600.73c1.44.68,1.96,1.35,2.18,2.03.08.34.12.68-.05,1.01-.25.49-1.26,1.13-1.8,1.52-.9.82-2.31,2.44-2.48,3.55-.15,2.82,2.48,5.51,3.15,8.11,1.43,5.47-4.11,10.62-2.47,16.22.62,2.7,2.53,5.41,2.66,8.11.47,4.09-2.07,8.19-3.01,12.16-.24,1.35-.64,2.7.03,4.05.61,1.04,1.13,2.13,2.02,3.04.63.6,1.71,1.22,1.97,2.03.27,1.45-.83,2.37-2.19,3.04,0,0-6.96,0-6.96,0-1.76-.73-3.21-2.66-1.43-4.05,1.47-1.02,2.44-2.53,3.23-4.05.67-1.35.27-2.7.02-4.05-.94-3.97-3.49-8.07-3.01-12.16.38-4.01,3.79-7.87,2.8-12.16-.68-4-3.76-8.07-2.6-12.16.67-2.6,3.3-5.29,3.15-8.11-.17-1.13-1.57-2.72-2.48-3.55-.87-.64-2.29-1.33-1.86-2.53.22-.68.74-1.35,2.18-2.03h6.96Z"/>
              <path class="cls-4" d="M722.8,600.71c1.44.68,1.96,1.35,2.18,2.03.08.34.12.68-.05,1.01-.25.49-1.26,1.13-1.8,1.52-.9.82-2.31,2.44-2.48,3.55-.15,2.82,2.48,5.51,3.15,8.11,1.42,5.47-4.11,10.62-2.47,16.22.62,2.7,2.53,5.41,2.66,8.11.47,4.09-2.07,8.19-3.01,12.16-.24,1.35-.64,2.7.03,4.05.61,1.04,1.13,2.13,2.02,3.04.63.6,1.71,1.22,1.97,2.03.27,1.45-.83,2.37-2.19,3.04,0,0-6.96,0-6.96,0-1.76-.73-3.21-2.65-1.43-4.05,1.47-1.02,2.44-2.53,3.23-4.05.67-1.35.27-2.7.02-4.05-.94-3.97-3.49-8.07-3.01-12.16.38-4.01,3.79-7.87,2.8-12.16-.68-4-3.76-8.07-2.6-12.16.67-2.6,3.3-5.29,3.15-8.11-.17-1.13-1.57-2.72-2.48-3.55-.87-.64-2.29-1.33-1.86-2.53.22-.68.74-1.35,2.18-2.03,0,0,6.96,0,6.96,0h0Z"/>
              <path class="cls-4" d="M704.75,600.71c1.44.68,1.96,1.35,2.18,2.03.08.34.12.68-.05,1.01-.25.49-1.26,1.13-1.8,1.52-.9.82-2.31,2.44-2.48,3.55-.15,2.82,2.48,5.51,3.15,8.11,1.43,5.47-4.11,10.62-2.47,16.22.62,2.7,2.53,5.41,2.66,8.11.47,4.09-2.07,8.19-3.01,12.16-.24,1.35-.64,2.7.03,4.05.61,1.04,1.13,2.13,2.02,3.04.63.6,1.71,1.22,1.97,2.03.27,1.45-.83,2.37-2.19,3.04,0,0-6.96,0-6.96,0-1.76-.73-3.21-2.66-1.43-4.05,1.47-1.02,2.44-2.53,3.23-4.05.67-1.35.27-2.7.02-4.05-.94-3.97-3.49-8.07-3.01-12.16.38-4.01,3.79-7.87,2.8-12.16-.68-4-3.76-8.07-2.6-12.16.67-2.6,3.3-5.29,3.15-8.11-.17-1.13-1.57-2.72-2.48-3.55-.87-.64-2.29-1.33-1.86-2.53.22-.68.74-1.35,2.18-2.03h6.96Z"/>
              <path class="cls-4" d="M689,600.71c1.44.68,1.96,1.35,2.18,2.03.08.34.12.68-.05,1.01-.25.49-1.26,1.13-1.8,1.52-.9.82-2.31,2.44-2.48,3.55-.15,2.82,2.48,5.51,3.15,8.11,1.42,5.47-4.11,10.62-2.47,16.22.62,2.7,2.53,5.41,2.66,8.11.47,4.09-2.07,8.19-3.01,12.16-.24,1.35-.64,2.7.02,4.05.61,1.04,1.13,2.13,2.02,3.04.62.6,1.71,1.22,1.97,2.03.27,1.45-.83,2.37-2.19,3.04,0,0-6.96,0-6.96,0-1.76-.73-3.21-2.65-1.43-4.05,1.47-1.02,2.44-2.53,3.23-4.05.67-1.35.27-2.7.02-4.05-.94-3.97-3.49-8.07-3.01-12.16.38-4.01,3.79-7.87,2.8-12.16-.68-4-3.76-8.07-2.6-12.16.67-2.6,3.3-5.29,3.15-8.11-.17-1.13-1.57-2.72-2.48-3.55-.87-.64-2.29-1.33-1.86-2.53.22-.68.74-1.35,2.18-2.03h6.96Z"/>
              <path class="cls-4" d="M672.64,600.71c1.44.68,1.96,1.35,2.18,2.03.08.34.12.68-.05,1.01-.25.49-1.26,1.13-1.8,1.52-.9.82-2.31,2.44-2.48,3.55-.15,2.82,2.48,5.51,3.15,8.11,1.43,5.47-4.11,10.62-2.47,16.22.62,2.7,2.53,5.41,2.66,8.11.47,4.09-2.07,8.19-3.01,12.16-.24,1.35-.64,2.7.03,4.05.61,1.04,1.13,2.13,2.02,3.04.63.6,1.71,1.22,1.97,2.03.27,1.45-.83,2.37-2.19,3.04,0,0-6.96,0-6.96,0-1.76-.73-3.21-2.66-1.43-4.05,1.47-1.02,2.44-2.53,3.23-4.05.67-1.35.27-2.7.02-4.05-.94-3.97-3.49-8.07-3.01-12.16.38-4.01,3.79-7.87,2.8-12.16-.69-4-3.76-8.07-2.6-12.16.67-2.6,3.3-5.29,3.15-8.11-.17-1.13-1.57-2.72-2.48-3.55-.87-.64-2.29-1.33-1.86-2.53.22-.68.74-1.35,2.18-2.03h6.96Z"/>
              <path class="cls-4" d="M655.55,600.71c1.44.68,1.96,1.35,2.18,2.03.08.34.12.68-.05,1.01-.25.49-1.26,1.13-1.8,1.52-.9.82-2.31,2.44-2.48,3.55-.15,2.82,2.48,5.51,3.15,8.11,1.43,5.47-4.11,10.62-2.47,16.22.62,2.7,2.53,5.41,2.66,8.11.47,4.09-2.07,8.19-3.01,12.16-.24,1.35-.64,2.7.03,4.05.61,1.04,1.13,2.13,2.02,3.04.63.6,1.71,1.22,1.97,2.03.27,1.45-.83,2.37-2.19,3.04,0,0-6.96,0-6.96,0-1.76-.73-3.21-2.66-1.43-4.05,1.47-1.02,2.44-2.53,3.23-4.05.67-1.35.27-2.7.02-4.05-.94-3.97-3.49-8.07-3.01-12.16.38-4.01,3.79-7.87,2.8-12.16-.68-4-3.76-8.07-2.6-12.16.67-2.6,3.3-5.29,3.15-8.11-.17-1.13-1.57-2.72-2.48-3.55-.87-.64-2.29-1.33-1.86-2.53.22-.68.74-1.35,2.18-2.03,0,0,6.96,0,6.96,0h0Z"/>
            </g>
          </g>
          <path class="cls-1" d="M742.06,585.5h-96.12c0-4.03-3.27-7.3-7.3-7.3v-11.12c4.03,0,7.3-3.27,7.3-7.3h96.12c0,4.03,3.27,7.3,7.3,7.3v11.12c-4.03,0-7.3,3.27-7.3,7.3Z"/>
        </g>
        <g id="Coluna_Esquerda" data-name="Coluna Esquerda">
          <rect class="cls-5" x="398.38" y="988.37" width="111.5" height="21.61" rx="3.41" ry="3.41"/>
          <rect class="cls-4" x="406.32" y="528.29" width="32.92" height="473.18"/>
          <path class="cls-5" d="M397.36,514.96h50.84v20.2c0,2.51-2.04,4.55-4.55,4.55h-41.82c-2.47,0-4.47-2-4.47-4.47v-20.27h0Z"/>
          <rect class="cls-4" x="468.01" y="528.29" width="32.92" height="473.18"/>
          <path class="cls-5" d="M459.05,514.96h50.84v20.2c0,2.51-2.04,4.55-4.55,4.55h-41.82c-2.47,0-4.47-2-4.47-4.47v-20.27h0Z"/>
        </g>
        <g id="Coluna_Direita" data-name="Coluna Direita">
          <rect class="cls-5" x="869.71" y="990.77" width="111.5" height="21.61" rx="3.41" ry="3.41"/>
          <rect class="cls-4" x="877.64" y="530.69" width="32.92" height="473.18"/>
          <path class="cls-5" d="M868.69,517.37h50.84v20.2c0,2.51-2.04,4.55-4.55,4.55h-41.82c-2.47,0-4.47-2-4.47-4.47v-20.27h0Z"/>
          <rect class="cls-4" x="939.33" y="530.69" width="32.92" height="473.18"/>
          <path class="cls-5" d="M930.37,517.37h50.84v20.2c0,2.51-2.04,4.55-4.55,4.55h-41.82c-2.47,0-4.47-2-4.47-4.47v-20.27h0Z"/>
        </g>
        <path class="cls-5" d="M384.89,486.35h628.57v25.22c0,3.75-3.05,6.8-6.8,6.8H389.88c-2.75,0-4.99-2.23-4.99-4.99v-27.03h0Z"/>
      </g>
      <g id="Telhado_Varanda" data-name="Telhado Varanda">
        <polygon id="telhado_branco" data-name="telhado branco" class="cls-1" points="1020.58 488.68 361.82 491.48 545.24 331.54 836.6 331.54 1020.58 488.68"/>
        <g>
          <line class="cls-7" x1="533.4" y1="490.75" x2="600.79" y2="331.54"/>
          <line class="cls-7" x1="576.72" y1="491.48" x2="628.84" y2="331.54"/>
          <line class="cls-7" x1="620.69" y1="490.38" x2="654.55" y2="331.54"/>
          <line class="cls-7" x1="665.03" y1="490" x2="681.44" y2="331.54"/>
          <line class="cls-7" x1="709.89" y1="490" x2="709.89" y2="331.54"/>
          <line class="cls-7" x1="752.79" y1="489.82" x2="735.21" y2="331.54"/>
          <line class="cls-7" x1="795.59" y1="489.64" x2="761.73" y2="331.54"/>
          <line class="cls-7" x1="839.62" y1="488.69" x2="789.91" y2="331.54"/>
          <line class="cls-7" x1="883.65" y1="488.69" x2="818.09" y2="331.54"/>
          <line class="cls-7" x1="926.96" y1="489.08" x2="848.01" y2="341.29"/>
          <line class="cls-7" x1="970.61" y1="488.89" x2="910.57" y2="394.71"/>
          <line class="cls-7" x1="488.69" y1="491.48" x2="573.13" y2="331.54"/>
          <line class="cls-7" x1="448.2" y1="491.11" x2="547.02" y2="331.54"/>
          <line class="cls-7" x1="402.96" y1="491.3" x2="475.75" y2="392.13"/>
          <line class="cls-7" x1="392.87" y1="463.84" x2="991.27" y2="464.18"/>
          <line class="cls-7" x1="955.79" y1="433.34" x2="425.59" y2="435.87"/>
          <line class="cls-7" x1="453.53" y1="411.51" x2="709.1" y2="411.51"/>
          <line class="cls-7" x1="930.37" y1="411.51" x2="709.89" y2="411.51"/>
          <line class="cls-7" x1="905.76" y1="390.61" x2="709.89" y2="390.47"/>
          <line class="cls-7" x1="477.58" y1="390.54" x2="709.1" y2="390.47"/>
          <line class="cls-7" x1="497.61" y1="371.4" x2="709.1" y2="371.79"/>
          <line class="cls-7" x1="884.97" y1="372.85" x2="709.89" y2="371.59"/>
          <line class="cls-7" x1="864.43" y1="355.31" x2="709.89" y2="355.03"/>
          <line class="cls-7" x1="518.14" y1="355.17" x2="709.1" y2="355.03"/>
          <line class="cls-7" x1="533.14" y1="341.63" x2="709.1" y2="341.74"/>
          <line class="cls-7" x1="849.43" y1="341.66" x2="709.89" y2="341.71"/>
        </g>
        <g>
          <path class="cls-9" d="M402.75,496.83c-.99-2.68-.13-6.03,1.49-8.4,4.74-6.89,13.5-9.63,21.34-9.7,7.83.06,16.6,2.8,21.34,9.7,1.62,2.37,2.48,5.72,1.49,8.4h-2.29c-1.07-1.9-2.42-2.89-4.01-3.71-7.83-4.2-32.17-5.04-37.06,3.71,0,0-2.29,0-2.29,0h0Z"/>
          <path class="cls-9" d="M362.06,496.83c-.99-2.48-.42-5.6.93-8.02,4.03-7.01,12.55-10.03,20.1-10.07,7.54.04,16.06,3.06,20.1,10.07,1.35,2.42,1.92,5.54.93,8.02h-2.29c-1.04-1.83-2.33-2.84-3.75-3.67-7.65-4.39-28.77-4.96-33.72,3.66,0,0-2.29,0-2.29,0h0Z"/>
          <path class="cls-9" d="M447.17,496.83c-.99-2.59-.26-5.83,1.23-8.24,4.43-6.94,13.08-9.8,20.78-9.85,7.7.05,16.34,2.92,20.78,9.85,1.49,2.41,2.22,5.65,1.23,8.24h-2.29c-1.06-1.87-2.38-2.86-3.89-3.69-7.74-4.28-30.66-5-35.55,3.69,0,0-2.29,0-2.29,0h0Z"/>
          <path class="cls-9" d="M488.9,496.83c-.99-2.62-.22-5.89,1.31-8.29,4.53-6.92,13.21-9.75,20.95-9.81,7.74.06,16.42,2.88,20.95,9.81,1.53,2.4,2.3,5.67,1.31,8.29h-2.29c-1.06-1.88-2.39-2.87-3.92-3.7-7.79-4.25-31.09-5.02-36.01,3.7,0,0-2.29,0-2.29,0h0Z"/>
          <path class="cls-9" d="M532.87,496.83c-.99-2.68-.13-6.03,1.49-8.4,4.74-6.89,13.5-9.63,21.34-9.7,7.83.06,16.6,2.8,21.34,9.7,1.62,2.37,2.48,5.72,1.49,8.4h-2.29c-1.07-1.9-2.42-2.89-4.01-3.71-7.83-4.2-32.17-5.04-37.06,3.71,0,0-2.29,0-2.29,0h0Z"/>
          <path class="cls-9" d="M577.98,496.83c-.99-2.58-.28-5.81,1.2-8.22,4.4-6.94,13.04-9.82,20.72-9.87,7.69.05,16.32,2.93,20.72,9.87,1.48,2.41,2.2,5.64,1.2,8.22h-2.29c-1.05-1.86-2.38-2.86-3.87-3.69-7.76-4.28-30.48-5.01-35.4,3.69,0,0-2.29,0-2.29,0h0Z"/>
          <path class="cls-9" d="M620.99,496.83c-.99-2.59-.26-5.84,1.24-8.24,4.44-6.94,13.09-9.8,20.79-9.85,7.7.05,16.35,2.91,20.79,9.85,1.5,2.41,2.23,5.65,1.24,8.24,0,0-2.29,0-2.29,0-1.06-1.87-2.38-2.86-3.89-3.69-7.74-4.28-30.7-5.01-35.6,3.69,0,0-2.29,0-2.29,0h0Z"/>
          <path class="cls-9" d="M662.76,496.83c-.98-2.75,0-6.19,1.71-8.52,4.98-6.85,13.84-9.5,21.79-9.57,7.95.07,16.81,2.72,21.79,9.57,1.71,2.33,2.69,5.77,1.71,8.52,0,0-2.29,0-2.29,0-1.09-1.92-2.45-2.91-4.12-3.73-7.89-4.15-33.43-5.06-38.3,3.73,0,0-2.29,0-2.29,0h0Z"/>
          <path class="cls-9" d="M708.57,496.83c-.99-2.68-.13-6.03,1.49-8.4,4.74-6.89,13.5-9.63,21.34-9.7,7.83.06,16.6,2.8,21.34,9.7,1.62,2.37,2.48,5.72,1.49,8.4h-2.29c-1.07-1.9-2.42-2.89-4.01-3.71-7.83-4.2-32.17-5.04-37.06,3.71,0,0-2.29,0-2.29,0h0Z"/>
          <path class="cls-9" d="M753.04,496.83c-.99-2.5-.4-5.63.96-8.05,4.09-7,12.62-10,20.18-10.04,7.56.04,16.1,3.04,20.18,10.04,1.37,2.42,1.96,5.55.96,8.05h-2.29c-1.04-1.83-2.34-2.84-3.76-3.67-7.65-4.38-29.04-4.96-33.95,3.67,0,0-2.29,0-2.29,0h0Z"/>
          <path class="cls-9" d="M793.67,496.83c-.98-2.71-.07-6.1,1.59-8.45,4.85-6.87,13.66-9.57,21.54-9.64,7.88.07,16.69,2.76,21.54,9.64,1.66,2.35,2.57,5.74,1.59,8.45,0,0-2.29,0-2.29,0-1.08-1.91-2.43-2.9-4.06-3.72-7.85-4.18-32.75-5.04-37.62,3.72,0,0-2.29,0-2.29,0h0Z"/>
          <path class="cls-9" d="M837.65,496.83c-.98-2.73-.05-6.14,1.64-8.48,4.91-6.87,13.73-9.54,21.64-9.61,7.91.07,16.74,2.75,21.64,9.61,1.68,2.34,2.62,5.76,1.64,8.48h-2.29c-1.08-1.91-2.44-2.9-4.09-3.72-7.85-4.17-33.04-5.04-37.89,3.72,0,0-2.29,0-2.29,0h0Z"/>
          <path class="cls-9" d="M881.92,496.41c-.99-2.68-.13-6.03,1.49-8.4,4.74-6.89,13.5-9.63,21.34-9.7,7.83.06,16.6,2.8,21.34,9.7,1.62,2.37,2.48,5.72,1.49,8.4,0,0-2.29,0-2.29,0-1.07-1.9-2.42-2.89-4.01-3.71-7.83-4.2-32.17-5.04-37.06,3.71,0,0-2.29,0-2.29,0h0Z"/>
          <path class="cls-9" d="M925.29,496.41c-.99-2.68-.13-6.03,1.49-8.4,4.74-6.89,13.5-9.63,21.34-9.7,7.83.06,16.6,2.8,21.34,9.7,1.62,2.37,2.48,5.72,1.49,8.4,0,0-2.29,0-2.29,0-1.07-1.9-2.42-2.89-4.01-3.71-7.83-4.2-32.17-5.04-37.06,3.71,0,0-2.29,0-2.29,0h0Z"/>
          <path class="cls-9" d="M968.65,496.83c-1.01-3.35.98-6.95,3.23-9.27,6.58-6.53,16.15-8.73,24.97-8.83,8.82.09,18.39,2.29,24.97,8.83,2.25,2.32,4.24,5.92,3.23,9.27,0,0-2.29,0-2.29,0-1.04-2.09-2.89-3.01-4.93-3.86-2.06-.81-4.33-1.36-6.65-1.77-8.32-1.64-35.89-2.62-40.24,5.64,0,0-2.29,0-2.29,0h0Z"/>
        </g>
        <path class="cls-9" d="M351.31,494.49c3.47-8.51,11.48-28.13,14.34-35.15.47-1.14,1.99-1.31,2.73-.33l20.42,26.85-2.8,4.75c-1.67.91-3.15,1.09-5.81,1.23l-8.31-2.01c-1.41-.95,1.81-.99,1.17.58l-7.42,7.4c-.48,1.18-1.93,1.31-2.86.45-2.33-2.17-6.08-2.15-9.23-1.33-1.5.39-2.82-1.02-2.23-2.46Z"/>
        <path class="cls-4" d="M367.29,470.53l-2.77,14.66c-.08.41.28.78.69.71l9.9-1.55c.41-.07.64-.52.44-.89l-7.13-13.11c-.27-.5-1.02-.38-1.13.18Z"/>
      </g>
      <g id="Janela">
        <path class="cls-4" d="M1092.3,535.28v296.59c0,1.26,1.02,2.28,2.28,2.28h62.13c1.26,0,2.28-1.02,2.28-2.28v-296.59c0-1.26-1.02-2.28-2.28-2.28h-62.13c-1.26,0-2.28,1.02-2.28,2.28ZM1131.91,604.3h12.64c1.26,0,2.28,1.02,2.28,2.28v40.74c0,1.26-1.02,2.28-2.28,2.28h-12.64c-1.26,0-2.28-1.02-2.28-2.28v-40.74c0-1.26,1.02-2.28,2.28-2.28ZM1131.91,660.92h12.64c1.26,0,2.28,1.02,2.28,2.28v40.74c0,1.26-1.02,2.28-2.28,2.28h-12.64c-1.26,0-2.28-1.02-2.28-2.28v-40.74c0-1.26,1.02-2.28,2.28-2.28ZM1106.74,604.3h12.64c1.26,0,2.28,1.02,2.28,2.28v40.74c0,1.26-1.02,2.28-2.28,2.28h-12.64c-1.26,0-2.28-1.02-2.28-2.28v-40.74c0-1.26,1.02-2.28,2.28-2.28ZM1106.74,660.92h12.64c1.26,0,2.28,1.02,2.28,2.28v40.74c0,1.26-1.02,2.28-2.28,2.28h-12.64c-1.26,0-2.28-1.02-2.28-2.28v-40.74c0-1.26,1.02-2.28,2.28-2.28ZM1106.74,717.12h12.64c1.26,0,2.28,1.02,2.28,2.28v40.74c0,1.26-1.02,2.28-2.28,2.28h-12.64c-1.26,0-2.28-1.02-2.28-2.28v-40.74c0-1.26,1.02-2.28,2.28-2.28ZM1120.23,817.78h-12.64c-1.26,0-2.28-1.02-2.28-2.28v-40.74c0-1.26,1.02-2.28,2.28-2.28h12.64c1.26,0,2.28,1.02,2.28,2.28v40.74c0,1.26-1.02,2.28-2.28,2.28ZM1120.23,595.07h-12.64c-1.26,0-2.28-1.02-2.28-2.28v-40.74c0-1.26,1.02-2.28,2.28-2.28h12.64c1.26,0,2.28,1.02,2.28,2.28v40.74c0,1.26-1.02,2.28-2.28,2.28ZM1131.91,717.12h12.64c1.26,0,2.28,1.02,2.28,2.28v40.74c0,1.26-1.02,2.28-2.28,2.28h-12.64c-1.26,0-2.28-1.02-2.28-2.28v-40.74c0-1.26,1.02-2.28,2.28-2.28ZM1145.39,817.78h-12.64c-1.26,0-2.28-1.02-2.28-2.28v-40.74c0-1.26,1.02-2.28,2.28-2.28h12.64c1.26,0,2.28,1.02,2.28,2.28v40.74c0,1.26-1.02,2.28-2.28,2.28ZM1145.39,595.07h-12.64c-1.26,0-2.28-1.02-2.28-2.28v-40.74c0-1.26,1.02-2.28,2.28-2.28h12.64c1.26,0,2.28,1.02,2.28,2.28v40.74c0,1.26-1.02,2.28-2.28,2.28Z"/>
        <path class="cls-4" d="M1169.9,535.25v296.65c0,1.24,1.01,2.25,2.25,2.25h62.19c1.24,0,2.25-1.01,2.25-2.25v-296.65c0-1.24-1.01-2.25-2.25-2.25h-62.19c-1.24,0-2.25,1.01-2.25,2.25ZM1209.47,604.3h12.7c1.24,0,2.25,1.01,2.25,2.25v40.8c0,1.24-1.01,2.25-2.25,2.25h-12.7c-1.24,0-2.25-1.01-2.25-2.25v-40.8c0-1.24,1.01-2.25,2.25-2.25ZM1209.47,660.92h12.7c1.24,0,2.25,1.01,2.25,2.25v40.8c0,1.24-1.01,2.25-2.25,2.25h-12.7c-1.24,0-2.25-1.01-2.25-2.25v-40.8c0-1.24,1.01-2.25,2.25-2.25ZM1184.31,604.3h12.7c1.24,0,2.25,1.01,2.25,2.25v40.8c0,1.24-1.01,2.25-2.25,2.25h-12.7c-1.24,0-2.25-1.01-2.25-2.25v-40.8c0-1.24,1.01-2.25,2.25-2.25ZM1184.31,660.92h12.7c1.24,0,2.25,1.01,2.25,2.25v40.8c0,1.24-1.01,2.25-2.25,2.25h-12.7c-1.24,0-2.25-1.01-2.25-2.25v-40.8c0-1.24,1.01-2.25,2.25-2.25ZM1184.31,717.12h12.7c1.24,0,2.25,1.01,2.25,2.25v40.8c0,1.24-1.01,2.25-2.25,2.25h-12.7c-1.24,0-2.25-1.01-2.25-2.25v-40.8c0-1.24,1.01-2.25,2.25-2.25ZM1197.85,817.78h-12.7c-1.24,0-2.25-1.01-2.25-2.25v-40.8c0-1.24,1.01-2.25,2.25-2.25h12.7c1.24,0,2.25,1.01,2.25,2.25v40.8c0,1.24-1.01,2.25-2.25,2.25ZM1197.85,595.07h-12.7c-1.24,0-2.25-1.01-2.25-2.25v-40.8c0-1.24,1.01-2.25,2.25-2.25h12.7c1.24,0,2.25,1.01,2.25,2.25v40.8c0,1.24-1.01,2.25-2.25,2.25ZM1209.47,717.12h12.7c1.24,0,2.25,1.01,2.25,2.25v40.8c0,1.24-1.01,2.25-2.25,2.25h-12.7c-1.24,0-2.25-1.01-2.25-2.25v-40.8c0-1.24,1.01-2.25,2.25-2.25ZM1223.01,817.78h-12.7c-1.24,0-2.25-1.01-2.25-2.25v-40.8c0-1.24,1.01-2.25,2.25-2.25h12.7c1.24,0,2.25,1.01,2.25,2.25v40.8c0,1.24-1.01,2.25-2.25,2.25ZM1223.01,595.07h-12.7c-1.24,0-2.25-1.01-2.25-2.25v-40.8c0-1.24,1.01-2.25,2.25-2.25h12.7c1.24,0,2.25,1.01,2.25,2.25v40.8c0,1.24-1.01,2.25-2.25,2.25Z"/>
        <path class="cls-4" d="M1247.91,535.2v296.74c0,1.22.99,2.2,2.2,2.2h62.28c1.22,0,2.2-.99,2.2-2.2v-296.74c0-1.22-.99-2.2-2.2-2.2h-62.28c-1.22,0-2.2.99-2.2,2.2ZM1287.44,604.3h12.79c1.22,0,2.2.99,2.2,2.2v40.89c0,1.22-.99,2.2-2.2,2.2h-12.79c-1.22,0-2.2-.99-2.2-2.2v-40.89c0-1.22.99-2.2,2.2-2.2ZM1287.44,660.92h12.79c1.22,0,2.2.99,2.2,2.2v40.89c0,1.22-.99,2.2-2.2,2.2h-12.79c-1.22,0-2.2-.99-2.2-2.2v-40.89c0-1.22.99-2.2,2.2-2.2ZM1262.27,604.3h12.79c1.22,0,2.2.99,2.2,2.2v40.89c0,1.22-.99,2.2-2.2,2.2h-12.79c-1.22,0-2.2-.99-2.2-2.2v-40.89c0-1.22.99-2.2,2.2-2.2ZM1262.27,660.92h12.79c1.22,0,2.2.99,2.2,2.2v40.89c0,1.22-.99,2.2-2.2,2.2h-12.79c-1.22,0-2.2-.99-2.2-2.2v-40.89c0-1.22.99-2.2,2.2-2.2ZM1262.27,717.12h12.79c1.22,0,2.2.99,2.2,2.2v40.89c0,1.22-.99,2.2-2.2,2.2h-12.79c-1.22,0-2.2-.99-2.2-2.2v-40.89c0-1.22.99-2.2,2.2-2.2ZM1275.9,817.78h-12.79c-1.22,0-2.2-.99-2.2-2.2v-40.89c0-1.22.99-2.2,2.2-2.2h12.79c1.22,0,2.2.99,2.2,2.2v40.89c0,1.22-.99,2.2-2.2,2.2ZM1275.9,595.07h-12.79c-1.22,0-2.2-.99-2.2-2.2v-40.89c0-1.22.99-2.2,2.2-2.2h12.79c1.22,0,2.2.99,2.2,2.2v40.89c0,1.22-.99,2.2-2.2,2.2ZM1287.44,717.12h12.79c1.22,0,2.2.99,2.2,2.2v40.89c0,1.22-.99,2.2-2.2,2.2h-12.79c-1.22,0-2.2-.99-2.2-2.2v-40.89c0-1.22.99-2.2,2.2-2.2ZM1301.07,817.78h-12.79c-1.22,0-2.2-.99-2.2-2.2v-40.89c0-1.22.99-2.2,2.2-2.2h12.79c1.22,0,2.2.99,2.2,2.2v40.89c0,1.22-.99,2.2-2.2,2.2ZM1301.07,595.07h-12.79c-1.22,0-2.2-.99-2.2-2.2v-40.89c0-1.22.99-2.2,2.2-2.2h12.79c1.22,0,2.2.99,2.2,2.2v40.89c0,1.22-.99,2.2-2.2,2.2Z"/>
        <path class="cls-4" d="M1325.5,535.17v296.79c0,1.2.97,2.17,2.17,2.17h62.34c1.2,0,2.17-.97,2.17-2.17v-296.79c0-1.2-.97-2.17-2.17-2.17h-62.34c-1.2,0-2.17.97-2.17,2.17ZM1365,604.3h12.85c1.2,0,2.17.97,2.17,2.17v40.95c0,1.2-.97,2.17-2.17,2.17h-12.85c-1.2,0-2.17-.97-2.17-2.17v-40.95c0-1.2.97-2.17,2.17-2.17ZM1365,660.92h12.85c1.2,0,2.17.97,2.17,2.17v40.95c0,1.2-.97,2.17-2.17,2.17h-12.85c-1.2,0-2.17-.97-2.17-2.17v-40.95c0-1.2.97-2.17,2.17-2.17ZM1339.84,604.3h12.85c1.2,0,2.17.97,2.17,2.17v40.95c0,1.2-.97,2.17-2.17,2.17h-12.85c-1.2,0-2.17-.97-2.17-2.17v-40.95c0-1.2.97-2.17,2.17-2.17ZM1339.84,660.92h12.85c1.2,0,2.17.97,2.17,2.17v40.95c0,1.2-.97,2.17-2.17,2.17h-12.85c-1.2,0-2.17-.97-2.17-2.17v-40.95c0-1.2.97-2.17,2.17-2.17ZM1339.84,717.12h12.85c1.2,0,2.17.97,2.17,2.17v40.95c0,1.2-.97,2.17-2.17,2.17h-12.85c-1.2,0-2.17-.97-2.17-2.17v-40.95c0-1.2.97-2.17,2.17-2.17ZM1353.52,817.78h-12.85c-1.2,0-2.17-.97-2.17-2.17v-40.95c0-1.2.97-2.17,2.17-2.17h12.85c1.2,0,2.17.97,2.17,2.17v40.95c0,1.2-.97,2.17-2.17,2.17ZM1353.52,595.07h-12.85c-1.2,0-2.17-.97-2.17-2.17v-40.95c0-1.2.97-2.17,2.17-2.17h12.85c1.2,0,2.17.97,2.17,2.17v40.95c0,1.2-.97,2.17-2.17,2.17ZM1365,717.12h12.85c1.2,0,2.17.97,2.17,2.17v40.95c0,1.2-.97,2.17-2.17,2.17h-12.85c-1.2,0-2.17-.97-2.17-2.17v-40.95c0-1.2.97-2.17,2.17-2.17ZM1378.69,817.78h-12.85c-1.2,0-2.17-.97-2.17-2.17v-40.95c0-1.2.97-2.17,2.17-2.17h12.85c1.2,0,2.17.97,2.17,2.17v40.95c0,1.2-.97,2.17-2.17,2.17ZM1378.69,595.07h-12.85c-1.2,0-2.17-.97-2.17-2.17v-40.95c0-1.2.97-2.17,2.17-2.17h12.85c1.2,0,2.17.97,2.17,2.17v40.95c0,1.2-.97,2.17-2.17,2.17Z"/>
        <g>
          <path class="cls-9" d="M1074.27,851.62c-.16,0-.29-.13-.29-.29v-13.35c0-2.28,1.85-4.13,4.13-4.13h327.84c2.28,0,4.13,1.85,4.13,4.13v13.35c0,.16-.13.29-.29.29h-335.53Z"/>
          <path class="cls-9" d="M1405.96,834.14c2.12,0,3.85,1.72,3.85,3.85v13.35h-335.53v-13.35c0-2.12,1.72-3.85,3.85-3.85h327.84M1405.96,833.57h-327.84c-2.44,0-4.42,1.98-4.42,4.42v13.35c0,.32.26.57.57.57h335.53c.32,0,.57-.26.57-.57v-13.35c0-2.44-1.98-4.42-4.42-4.42h0Z"/>
        </g>
      </g>
      <g id="Lampada">
        <path class="cls-9" d="M1220.76,340.27c-1.51,3.22-2.69,6.64-3.42,10.25h-21.88v-10.25h25.3Z"/>
        <path class="cls-9" d="M1313.54,340.27v10.25h-21.88c-.72-3.61-1.91-7.03-3.42-10.25h25.3Z"/>
        <path class="cls-9" d="M1258.8,270.23v47.64c-1.38-.2-2.83-.26-4.27-.26-2.3,0-4.6.26-6.83.72v-48.1h11.1Z"/>
        <path class="cls-9" d="M1258.8,403.16v48.03h-11.1v-48.49c2.23.46,4.53.72,6.83.72,1.45,0,2.89-.07,4.27-.26Z"/>
        <path class="cls-9" d="M1217.34,370.5c.72,3.61,1.91,7.03,3.42,10.25h-25.3v-10.25h21.88Z"/>
        <path class="cls-9" d="M1313.54,370.5v10.25h-25.3c1.51-3.22,2.69-6.64,3.42-10.25h21.88Z"/>
        <path class="cls-8" d="M1290.72,360.51c0,3.33-.38,6.53-1.07,9.54-.69,3.45-1.82,6.72-3.26,9.79-5.51,11.61-15.92,19.84-28.07,21.41-1.32.19-2.69.25-4.07.25-2.19,0-4.39-.25-6.52-.69-11.15-2.2-20.49-10.11-25.69-20.97-1.44-3.08-2.57-6.34-3.26-9.79-.69-3.01-1.07-6.22-1.07-9.54s.38-6.53,1.07-9.54c.69-3.45,1.82-6.72,3.26-9.79,5.2-10.86,14.54-18.77,25.69-20.97,2.13-.44,4.32-.69,6.52-.69,1.38,0,2.76.06,4.07.25,12.16,1.57,22.56,9.79,28.07,21.41,1.44,3.08,2.57,6.34,3.26,9.79.69,3.01,1.07,6.22,1.07,9.54Z"/>
        <rect class="cls-9" x="1250.1" y="370.5" width="6.29" height="20.18"/>
        <path class="cls-9" d="M1239.35,336l3.94,34.5h20.11l4.34-34.5h-28.39ZM1251.05,365.37h-4.07l-2.76-27.73h6.83v27.73ZM1259.5,365.34h-4.05v-27.68h6.85l-2.8,27.68Z"/>
        <polygon class="cls-9" points="1253.25 318.56 1235.11 336.01 1239.38 336.01 1271.39 336.01 1253.25 318.56"/>
      </g>
    </g>
  </g>
</svg>